<svg width="32" height="32" viewBox="0 0 32 32" fill="none" xmlns="http://www.w3.org/2000/svg">
<path d="M12 24C12 24 12 28 16.0619 28C20.1239 28 20.1239 24 20.1239 24" stroke="#6F7378" stroke-width="2" stroke-linejoin="round"/>
<path d="M9.3286 10.2744L7.28231 20.8256C6.96312 22.4715 8.22375 24 9.90019 24H12H20H22.0999C23.7763 24 25.0369 22.4713 24.7177 20.8256L22.6713 10.2744C22.6683 10.2581 22.6653 10.2437 22.6616 10.2275C22.5684 9.82003 21.1467 4 16 4C10.8534 4 9.4316 9.82001 9.33834 10.2275C9.33465 10.2437 9.33176 10.2581 9.3286 10.2744Z" stroke="#6F7378" stroke-width="2" stroke-linejoin="round"/>
</svg>
