<svg width="32" height="32" viewBox="0 0 32 32" fill="none" xmlns="http://www.w3.org/2000/svg">
<path d="M13.6733 5.58409C13.1236 6.90341 11.5821 7.49942 10.2844 6.90048C8.1372 5.90948 5.90948 8.1372 6.90048 10.2844C7.49942 11.5821 6.90341 13.1236 5.58409 13.6733C3.51592 14.5351 3.51592 17.4649 5.58409 18.3267C6.90341 18.8764 7.49942 20.418 6.90048 21.7156C5.90948 23.8628 8.1372 26.0905 10.2844 25.0995C11.5821 24.5005 13.1236 25.0965 13.6733 26.4159C14.5351 28.4841 17.4649 28.4841 18.3267 26.4159C18.8764 25.0965 20.418 24.5005 21.7156 25.0995C23.8628 26.0905 26.0905 23.8628 25.0995 21.7156C24.5005 20.418 25.0965 18.8764 26.4159 18.3267C28.4841 17.4649 28.4841 14.5351 26.4159 13.6733C25.0965 13.1236 24.5005 11.5821 25.0995 10.2844C26.0905 8.1372 23.8628 5.90948 21.7156 6.90048C20.418 7.49942 18.8764 6.90341 18.3267 5.58409C17.4649 3.51592 14.5351 3.51592 13.6733 5.58409Z" stroke="#6F7378" stroke-width="2" stroke-linecap="round" stroke-linejoin="round"/>
<path d="M20 16C20 18.2092 18.2092 20 16 20C13.7908 20 12 18.2092 12 16C12 13.7908 13.7908 12 16 12C18.2092 12 20 13.7908 20 16Z" stroke="#6F7378" stroke-width="2"/>
</svg>
