<svg width="24" height="22" viewBox="0 0 24 22" fill="none" xmlns="http://www.w3.org/2000/svg">
<path d="M10.9569 2.9211L10.9569 2.92111C11.5151 3.53877 12.4849 3.53877 13.0431 2.92111C14.1463 1.70039 15.6579 1.00001 17.25 1.00001C18.8421 1.00001 20.3537 1.70039 21.4569 2.92111L21.8279 2.58586L21.4569 2.92112C22.5581 4.13947 23.1667 5.77876 23.1667 7.47573C23.1667 9.17277 22.5581 10.8121 21.4569 12.0303L21.4569 12.0303L14.2257 20.0316L14.5967 20.3668L14.2257 20.0316C13.0346 21.3496 10.9654 21.3496 9.7743 20.0316L9.40334 20.3668L9.77429 20.0316L2.54311 12.0303L2.54308 12.0303C1.99733 11.4265 1.56751 10.7131 1.27529 9.93255C0.983075 9.15196 0.833336 8.3173 0.833336 7.47573C0.833336 6.63418 0.983074 5.79955 1.27529 5.01897L1.27529 5.01897C1.56751 4.23835 1.99733 3.525 2.5431 2.92112L2.54311 2.92111C3.089 2.31708 3.74077 1.83391 4.46317 1.50281C5.18582 1.1716 5.96312 1 6.75003 1C7.53694 1 8.31423 1.1716 9.03689 1.50281C9.75931 1.83391 10.4111 2.31708 10.9569 2.9211Z" fill="white" fill-opacity="0.6" stroke="#212325"/>
</svg>
